G04*
G04 #@! TF.GenerationSoftware,Altium Limited,Altium Designer,24.6.1 (21)*
G04*
G04 Layer_Color=65535*
%FSLAX44Y44*%
%MOMM*%
G71*
G04*
G04 #@! TF.SameCoordinates,1207D394-1C88-4F4B-BD9F-65BECFCF712D*
G04*
G04*
G04 #@! TF.FilePolarity,Positive*
G04*
G01*
G75*
%ADD10C,0.2000*%
%ADD11C,0.1270*%
%ADD12C,0.2540*%
D10*
X821780Y1184830D02*
G03*
X821780Y1184830I-1000J0D01*
G01*
X665440Y978730D02*
G03*
X665440Y978730I-1000J0D01*
G01*
X571950Y1004600D02*
G03*
X571950Y1004600I-1000J0D01*
G01*
X765460Y936600D02*
G03*
X765460Y936600I-1000J0D01*
G01*
D11*
X739370Y978730D02*
G03*
X739370Y978730I-39370J0D01*
G01*
X1031330Y1178330D02*
X1054730D01*
Y978400D02*
Y1178330D01*
X1031330Y978400D02*
Y1178330D01*
Y978400D02*
X1054730D01*
X809080Y1178330D02*
X832480D01*
Y978400D02*
Y1178330D01*
X809080Y978400D02*
Y1178330D01*
Y978400D02*
X832480D01*
X578300Y993900D02*
X601700D01*
X578300D02*
Y1090960D01*
X601700Y993900D02*
Y1090960D01*
X578300D02*
X601700D01*
X628300Y943100D02*
Y1143030D01*
X651700Y943100D02*
Y1143030D01*
X628300Y943100D02*
X651700D01*
X628300Y1143030D02*
X651700D01*
X752760Y943100D02*
Y1143030D01*
X776160Y943100D02*
Y1143030D01*
X752760Y943100D02*
X776160D01*
X752760Y1143030D02*
X776160D01*
D12*
X138911Y1141209D02*
Y1156444D01*
X143989Y1151366D01*
X149068Y1156444D01*
Y1141209D01*
X164303Y1156444D02*
X154146D01*
Y1148827D01*
X159224Y1151366D01*
X161764D01*
X164303Y1148827D01*
Y1143748D01*
X161764Y1141209D01*
X156685D01*
X154146Y1143748D01*
X826167Y785732D02*
Y800967D01*
X818549D01*
X816010Y798428D01*
Y793350D01*
X818549Y790811D01*
X826167D01*
X810932Y785732D02*
X805853D01*
X808392D01*
Y800967D01*
X810932Y798428D01*
X940315Y1102383D02*
X935236D01*
X937776D01*
Y1117617D01*
X940315D01*
X935236D01*
X917462Y1104922D02*
X920001Y1102383D01*
X925080D01*
X927619Y1104922D01*
Y1115078D01*
X925080Y1117617D01*
X920001D01*
X917462Y1115078D01*
X912384Y1117617D02*
X907306D01*
X909845D01*
Y1102383D01*
X912384Y1104922D01*
X699922Y978730D02*
X697382Y976191D01*
Y971113D01*
X699922Y968573D01*
X710078D01*
X712617Y971113D01*
Y976191D01*
X710078Y978730D01*
X712617Y983808D02*
Y988887D01*
Y986348D01*
X697382D01*
X699922Y983808D01*
M02*
