G04*
G04 #@! TF.GenerationSoftware,Altium Limited,Altium Designer,24.6.1 (21)*
G04*
G04 Layer_Color=8388736*
%FSLAX44Y44*%
%MOMM*%
G71*
G04*
G04 #@! TF.SameCoordinates,1207D394-1C88-4F4B-BD9F-65BECFCF712D*
G04*
G04*
G04 #@! TF.FilePolarity,Negative*
G04*
G01*
G75*
%ADD13C,25.2032*%
%ADD14C,3.2032*%
%ADD15C,1.4432*%
%ADD16R,1.4432X1.4432*%
%ADD17R,5.2032X5.2032*%
%ADD18R,1.4032X1.4032*%
%ADD19C,1.4032*%
D13*
X310000Y960000D02*
D03*
D14*
X467500Y1117500D02*
D03*
X152500D02*
D03*
X467500Y802500D02*
D03*
X152500D02*
D03*
X1060000Y850000D02*
D03*
Y730000D02*
D03*
D15*
X1043030Y1167630D02*
D03*
Y1142230D02*
D03*
Y1116830D02*
D03*
Y1091430D02*
D03*
Y1066030D02*
D03*
Y1040630D02*
D03*
Y1015230D02*
D03*
Y989830D02*
D03*
X820780Y1142230D02*
D03*
Y1116830D02*
D03*
Y1091430D02*
D03*
Y1066030D02*
D03*
Y1040630D02*
D03*
Y1015230D02*
D03*
Y989830D02*
D03*
X590000Y1055400D02*
D03*
Y1080800D02*
D03*
Y1030000D02*
D03*
X640000Y1055400D02*
D03*
Y1004600D02*
D03*
Y1030000D02*
D03*
Y1131600D02*
D03*
Y1080800D02*
D03*
Y1106200D02*
D03*
Y979200D02*
D03*
X764460Y1055400D02*
D03*
Y1004600D02*
D03*
Y1030000D02*
D03*
Y1131600D02*
D03*
Y1080800D02*
D03*
Y1106200D02*
D03*
Y979200D02*
D03*
D16*
X820780Y1167630D02*
D03*
X590000Y1004600D02*
D03*
X640000Y953800D02*
D03*
X764460D02*
D03*
D17*
X600000Y700000D02*
D03*
Y875900D02*
D03*
X990000Y700000D02*
D03*
Y875900D02*
D03*
D18*
X675000Y978730D02*
D03*
D19*
X725000D02*
D03*
M02*
