G04*
G04 #@! TF.GenerationSoftware,Altium Limited,Altium Designer,24.6.1 (21)*
G04*
G04 Layer_Physical_Order=1*
G04 Layer_Color=255*
%FSLAX44Y44*%
%MOMM*%
G71*
G04*
G04 #@! TF.SameCoordinates,1207D394-1C88-4F4B-BD9F-65BECFCF712D*
G04*
G04*
G04 #@! TF.FilePolarity,Positive*
G04*
G01*
G75*
%ADD20C,0.7620*%
%ADD21C,0.5080*%
%ADD22C,0.3810*%
%ADD23C,25.0000*%
%ADD24C,3.0000*%
%ADD25C,1.2400*%
%ADD26R,1.2400X1.2400*%
%ADD27R,5.0000X5.0000*%
%ADD28R,1.2000X1.2000*%
%ADD29C,1.2000*%
G36*
X1020000Y670000D02*
X790000D01*
Y1040000D01*
X560000D01*
Y1250000D01*
X1020000D01*
Y670000D01*
D02*
G37*
G36*
X750000D02*
X560000D01*
Y990000D01*
X750000D01*
Y670000D01*
D02*
G37*
%LPC*%
G36*
X829520Y1176370D02*
X812040D01*
Y1175180D01*
X720000D01*
X720000Y1175180D01*
X718018Y1174785D01*
X716338Y1173662D01*
X654054Y1111379D01*
X647042D01*
X646233Y1112433D01*
X644408Y1113834D01*
X642282Y1114715D01*
X642040Y1114747D01*
X641982Y1114785D01*
X640000Y1115180D01*
X638018Y1114785D01*
X637960Y1114747D01*
X637718Y1114715D01*
X635592Y1113834D01*
X633767Y1112433D01*
X632366Y1110608D01*
X631485Y1108482D01*
X631185Y1106200D01*
X631485Y1103918D01*
X632366Y1101792D01*
X633767Y1099967D01*
X635592Y1098566D01*
X637718Y1097685D01*
X640000Y1097385D01*
X642282Y1097685D01*
X644408Y1098566D01*
X646233Y1099967D01*
X647042Y1101021D01*
X656200D01*
X658182Y1101415D01*
X659862Y1102538D01*
X722145Y1164820D01*
X812040D01*
Y1158890D01*
X829520D01*
Y1164820D01*
X837855D01*
X864820Y1137855D01*
Y814100D01*
X865215Y812118D01*
X866338Y810437D01*
X962460Y714315D01*
Y672460D01*
X1017540D01*
Y727540D01*
X963885D01*
X875180Y816245D01*
Y1140000D01*
X874785Y1141982D01*
X874335Y1142655D01*
X873662Y1143662D01*
X873662Y1143662D01*
X843662Y1173662D01*
X841982Y1174785D01*
X840000Y1175180D01*
X829520D01*
Y1176370D01*
D02*
G37*
G36*
X764460Y1140415D02*
X762178Y1140115D01*
X760052Y1139234D01*
X758227Y1137833D01*
X756826Y1136008D01*
X755945Y1133882D01*
X755645Y1131600D01*
X755945Y1129318D01*
X756826Y1127192D01*
X758227Y1125367D01*
X760052Y1123966D01*
X762178Y1123085D01*
X764460Y1122785D01*
X766742Y1123085D01*
X768868Y1123966D01*
X770693Y1125367D01*
X771999Y1127068D01*
X804133D01*
X812244Y1118956D01*
X811965Y1116830D01*
X812265Y1114548D01*
X813146Y1112422D01*
X814547Y1110597D01*
X816372Y1109196D01*
X818498Y1108315D01*
X820780Y1108015D01*
X823062Y1108315D01*
X825188Y1109196D01*
X827013Y1110597D01*
X828414Y1112422D01*
X829295Y1114548D01*
X829595Y1116830D01*
X829295Y1119112D01*
X828414Y1121238D01*
X827013Y1123063D01*
X825188Y1124464D01*
X823062Y1125345D01*
X820780Y1125645D01*
X818654Y1125366D01*
X809215Y1134805D01*
X807744Y1135787D01*
X806010Y1136132D01*
X771999D01*
X770693Y1137833D01*
X768868Y1139234D01*
X766742Y1140115D01*
X764460Y1140415D01*
D02*
G37*
G36*
X640000Y1089615D02*
X637718Y1089315D01*
X635592Y1088434D01*
X633767Y1087033D01*
X632461Y1085332D01*
X597539D01*
X596233Y1087033D01*
X594408Y1088434D01*
X592282Y1089315D01*
X590000Y1089615D01*
X587718Y1089315D01*
X585592Y1088434D01*
X583767Y1087033D01*
X582366Y1085208D01*
X581485Y1083082D01*
X581185Y1080800D01*
X581485Y1078518D01*
X582366Y1076392D01*
X583767Y1074566D01*
X585592Y1073166D01*
X587718Y1072285D01*
X590000Y1071985D01*
X592282Y1072285D01*
X594408Y1073166D01*
X596233Y1074566D01*
X597539Y1076268D01*
X632461D01*
X633767Y1074566D01*
X635592Y1073166D01*
X637718Y1072285D01*
X640000Y1071985D01*
X642282Y1072285D01*
X644408Y1073166D01*
X646233Y1074566D01*
X647634Y1076392D01*
X648515Y1078518D01*
X648815Y1080800D01*
X648515Y1083082D01*
X647634Y1085208D01*
X646233Y1087033D01*
X644408Y1088434D01*
X642282Y1089315D01*
X640000Y1089615D01*
D02*
G37*
G36*
X764460Y1115015D02*
X762178Y1114715D01*
X760052Y1113834D01*
X758227Y1112433D01*
X756826Y1110608D01*
X755945Y1108482D01*
X755645Y1106200D01*
X755945Y1103918D01*
X756826Y1101792D01*
X758227Y1099967D01*
X760052Y1098566D01*
X762178Y1097685D01*
X764460Y1097385D01*
X766742Y1097685D01*
X768868Y1098566D01*
X770693Y1099967D01*
X771999Y1101668D01*
X804133D01*
X812244Y1093556D01*
X811965Y1091430D01*
X812265Y1089148D01*
X813146Y1087022D01*
X814547Y1085197D01*
X816372Y1083796D01*
X818498Y1082915D01*
X820780Y1082615D01*
X823062Y1082915D01*
X825188Y1083796D01*
X827013Y1085197D01*
X828414Y1087022D01*
X829295Y1089148D01*
X829595Y1091430D01*
X829295Y1093712D01*
X828414Y1095838D01*
X827013Y1097663D01*
X825188Y1099064D01*
X823062Y1099945D01*
X820780Y1100245D01*
X818654Y1099966D01*
X809215Y1109405D01*
X807744Y1110387D01*
X806010Y1110732D01*
X771999D01*
X770693Y1112433D01*
X768868Y1113834D01*
X766742Y1114715D01*
X764460Y1115015D01*
D02*
G37*
G36*
X640000Y1064215D02*
X637718Y1063915D01*
X635592Y1063034D01*
X633767Y1061633D01*
X632461Y1059932D01*
X597539D01*
X596233Y1061633D01*
X594408Y1063034D01*
X592282Y1063915D01*
X590000Y1064215D01*
X587718Y1063915D01*
X585592Y1063034D01*
X583767Y1061633D01*
X582366Y1059808D01*
X581485Y1057682D01*
X581185Y1055400D01*
X581485Y1053118D01*
X582366Y1050992D01*
X583767Y1049166D01*
X585592Y1047766D01*
X587718Y1046885D01*
X590000Y1046585D01*
X592282Y1046885D01*
X594408Y1047766D01*
X596233Y1049166D01*
X597539Y1050868D01*
X632461D01*
X633767Y1049166D01*
X635592Y1047766D01*
X637718Y1046885D01*
X640000Y1046585D01*
X642282Y1046885D01*
X644408Y1047766D01*
X646233Y1049166D01*
X647634Y1050992D01*
X648515Y1053118D01*
X648815Y1055400D01*
X648515Y1057682D01*
X647634Y1059808D01*
X646233Y1061633D01*
X644408Y1063034D01*
X642282Y1063915D01*
X640000Y1064215D01*
D02*
G37*
G36*
X820780Y1074845D02*
X818498Y1074545D01*
X816372Y1073664D01*
X814547Y1072263D01*
X813146Y1070438D01*
X812265Y1068312D01*
X811965Y1066030D01*
X812265Y1063748D01*
X813146Y1061622D01*
X814547Y1059797D01*
X816372Y1058396D01*
X818498Y1057515D01*
X820780Y1057215D01*
X823062Y1057515D01*
X825188Y1058396D01*
X827013Y1059797D01*
X828414Y1061622D01*
X829295Y1063748D01*
X829595Y1066030D01*
X829295Y1068312D01*
X828414Y1070438D01*
X827013Y1072263D01*
X825188Y1073664D01*
X823062Y1074545D01*
X820780Y1074845D01*
D02*
G37*
G36*
X764460Y1089615D02*
X762178Y1089315D01*
X760052Y1088434D01*
X758227Y1087033D01*
X756826Y1085208D01*
X755945Y1083082D01*
X755645Y1080800D01*
X755945Y1078518D01*
X756826Y1076392D01*
X758227Y1074566D01*
X759928Y1073261D01*
Y1062939D01*
X758227Y1061633D01*
X756826Y1059808D01*
X755945Y1057682D01*
X755645Y1055400D01*
X755945Y1053118D01*
X756826Y1050992D01*
X758227Y1049166D01*
X760052Y1047766D01*
X762178Y1046885D01*
X764460Y1046585D01*
X766742Y1046885D01*
X768868Y1047766D01*
X770693Y1049166D01*
X772094Y1050992D01*
X772975Y1053118D01*
X773275Y1055400D01*
X772975Y1057682D01*
X772094Y1059808D01*
X770693Y1061633D01*
X768992Y1062939D01*
Y1073261D01*
X770693Y1074566D01*
X772094Y1076392D01*
X772975Y1078518D01*
X773275Y1080800D01*
X772975Y1083082D01*
X772094Y1085208D01*
X770693Y1087033D01*
X768868Y1088434D01*
X766742Y1089315D01*
X764460Y1089615D01*
D02*
G37*
G36*
X820780Y1049445D02*
X818498Y1049145D01*
X816372Y1048264D01*
X814547Y1046863D01*
X813146Y1045038D01*
X812265Y1042912D01*
X811965Y1040630D01*
X812265Y1038348D01*
X813146Y1036222D01*
X814547Y1034397D01*
X816372Y1032996D01*
X818498Y1032115D01*
X820780Y1031815D01*
X823062Y1032115D01*
X825188Y1032996D01*
X827013Y1034397D01*
X828414Y1036222D01*
X829295Y1038348D01*
X829595Y1040630D01*
X829295Y1042912D01*
X828414Y1045038D01*
X827013Y1046863D01*
X825188Y1048264D01*
X823062Y1049145D01*
X820780Y1049445D01*
D02*
G37*
G36*
Y1024045D02*
X818498Y1023745D01*
X816372Y1022864D01*
X814547Y1021463D01*
X813146Y1019638D01*
X812265Y1017512D01*
X811965Y1015230D01*
X812265Y1012948D01*
X813146Y1010822D01*
X814547Y1008997D01*
X816372Y1007596D01*
X818498Y1006715D01*
X820780Y1006415D01*
X823062Y1006715D01*
X825188Y1007596D01*
X827013Y1008997D01*
X828414Y1010822D01*
X829295Y1012948D01*
X829595Y1015230D01*
X829295Y1017512D01*
X828414Y1019638D01*
X827013Y1021463D01*
X825188Y1022864D01*
X823062Y1023745D01*
X820780Y1024045D01*
D02*
G37*
G36*
Y998645D02*
X818498Y998345D01*
X816372Y997464D01*
X814547Y996063D01*
X813146Y994238D01*
X812265Y992112D01*
X811965Y989830D01*
X812265Y987548D01*
X813146Y985422D01*
X814547Y983597D01*
X816372Y982196D01*
X818498Y981315D01*
X820780Y981015D01*
X823062Y981315D01*
X825188Y982196D01*
X827013Y983597D01*
X828414Y985422D01*
X829295Y987548D01*
X829595Y989830D01*
X829295Y992112D01*
X828414Y994238D01*
X827013Y996063D01*
X825188Y997464D01*
X823062Y998345D01*
X820780Y998645D01*
D02*
G37*
G36*
X683540Y987270D02*
X666460D01*
Y970190D01*
X668526D01*
Y963982D01*
X664818Y960274D01*
X648740D01*
Y962540D01*
X631260D01*
Y945060D01*
X633526D01*
Y736782D01*
X624284Y727540D01*
X572460D01*
Y672460D01*
X627540D01*
Y712484D01*
X644578Y729522D01*
X645982Y731622D01*
X646474Y734100D01*
Y945060D01*
X648740D01*
Y947326D01*
X667500D01*
X669978Y947818D01*
X672078Y949222D01*
X679578Y956722D01*
X680982Y958822D01*
X681474Y961300D01*
Y970190D01*
X683540D01*
Y987270D01*
D02*
G37*
%LPD*%
D20*
X600000Y694100D02*
X640000Y734100D01*
Y953800D01*
X675000Y961300D02*
Y978730D01*
X667500Y953800D02*
X675000Y961300D01*
X640000Y953800D02*
X667500D01*
D21*
X870000Y814100D02*
Y1140000D01*
Y814100D02*
X990000Y694100D01*
X840000Y1170000D02*
X870000Y1140000D01*
X823150Y1170000D02*
X840000D01*
X820780Y1167630D02*
X823150Y1170000D01*
X720000D02*
X818410D01*
X656200Y1106200D02*
X720000Y1170000D01*
X818410D02*
X820780Y1167630D01*
X640000Y1106200D02*
X656200D01*
X640000D02*
Y1110000D01*
D22*
X764460Y1106200D02*
X806010D01*
X820780Y1091430D01*
X806010Y1131600D02*
X820780Y1116830D01*
X764460Y1131600D02*
X806010D01*
X764460Y1055400D02*
Y1080800D01*
X590000D02*
X640000D01*
X590000Y1055400D02*
X640000D01*
X590000Y1030000D02*
X640000D01*
X590000Y1004600D02*
X640000D01*
D23*
X310000Y960000D02*
D03*
D24*
X467500Y1117500D02*
D03*
X152500D02*
D03*
X467500Y802500D02*
D03*
X152500D02*
D03*
X1060000Y850000D02*
D03*
Y730000D02*
D03*
D25*
X1043030Y1167630D02*
D03*
Y1142230D02*
D03*
Y1116830D02*
D03*
Y1091430D02*
D03*
Y1066030D02*
D03*
Y1040630D02*
D03*
Y1015230D02*
D03*
Y989830D02*
D03*
X820780Y1142230D02*
D03*
Y1116830D02*
D03*
Y1091430D02*
D03*
Y1066030D02*
D03*
Y1040630D02*
D03*
Y1015230D02*
D03*
Y989830D02*
D03*
X590000Y1055400D02*
D03*
Y1080800D02*
D03*
Y1030000D02*
D03*
X640000Y1055400D02*
D03*
Y1004600D02*
D03*
Y1030000D02*
D03*
Y1131600D02*
D03*
Y1080800D02*
D03*
Y1106200D02*
D03*
Y979200D02*
D03*
X764460Y1055400D02*
D03*
Y1004600D02*
D03*
Y1030000D02*
D03*
Y1131600D02*
D03*
Y1080800D02*
D03*
Y1106200D02*
D03*
Y979200D02*
D03*
D26*
X820780Y1167630D02*
D03*
X590000Y1004600D02*
D03*
X640000Y953800D02*
D03*
X764460D02*
D03*
D27*
X600000Y700000D02*
D03*
Y875900D02*
D03*
X990000Y700000D02*
D03*
Y875900D02*
D03*
D28*
X675000Y978730D02*
D03*
D29*
X725000D02*
D03*
M02*
