M48
;Layer_Color=9474304
;FILE_FORMAT=4:4
METRIC,LZ
;TYPE=PLATED
T01F00S00C0.7620
T02F00S00C0.8500
T03F00S00C0.8900
T04F00S00C3.0000
T05F00S00C25.0000
%
T01
X0099Y007
X006
Y008759
X0099
T02
X00675Y0097873
X00725
T03
X0064Y009538
Y009792
Y010046
Y0103
Y010554
Y010808
Y011062
Y011316
X0059Y010808
Y010554
Y0103
Y010046
X0076446
Y0103
Y010554
Y010808
Y011062
Y011316
Y009792
Y009538
X0082078Y0098983
Y0101523
Y0104063
Y0106603
Y0109143
Y0111683
Y0114223
Y0116763
X0104303
Y0114223
Y0111683
Y0109143
Y0106603
Y0104063
Y0101523
Y0098983
T04
X0106Y0073
X001525Y008025
Y011175
X004675
Y008025
X0106Y0085
T05
X0031Y0096
M30
